<svg width="512" height="512" viewBox="0 0 512 512" fill="none" xmlns="http://www.w3.org/2000/svg">
  <defs>
    <linearGradient id="silver" x1="70" y1="90" x2="440" y2="420" gradientUnits="userSpaceOnUse">
      <stop stop-color="#FFFFFF"/>
      <stop offset="0.48" stop-color="#BFC7D4"/>
      <stop offset="1" stop-color="#F8FAFD"/>
    </linearGradient>
    <linearGradient id="blue" x1="190" y1="100" x2="335" y2="410" gradientUnits="userSpaceOnUse">
      <stop stop-color="#4FD9FF"/>
      <stop offset="0.42" stop-color="#1677FF"/>
      <stop offset="1" stop-color="#0737D8"/>
    </linearGradient>
    <filter id="glow" x="-80%" y="-80%" width="260%" height="260%">
      <feGaussianBlur stdDeviation="16" result="blur"/>
      <feMerge><feMergeNode in="blur"/><feMergeNode in="SourceGraphic"/></feMerge>
    </filter>
  </defs>
  <rect width="512" height="512" rx="48" fill="#030507"/>
  <circle cx="256" cy="256" r="192" stroke="#1B67D8" stroke-opacity=".32"/>
  <circle cx="256" cy="256" r="154" stroke="#AFC0D8" stroke-opacity=".1"/>
  <path d="M72 156H216C255 156 277 177 277 211C277 237 263 253 240 261L286 321H226L184 268H136V321H72V156ZM136 204V226H192C206 226 214 218 214 215C214 211 206 204 192 204H136Z" fill="url(#silver)"/>
  <path d="M214 156H307C388 156 425 194 425 256C425 318 388 356 307 356H214V156ZM278 211V301H307C342 301 360 286 360 256C360 226 342 211 307 211H278Z" fill="url(#blue)" filter="url(#glow)"/>
  <path d="M336 156H440V211H398C378 211 368 218 368 229C368 239 378 246 398 246H418C435 246 444 254 444 268V303C444 337 419 356 377 356H314V301H370C384 301 392 295 392 285C392 275 384 269 370 269H352C332 269 322 258 322 239V205C322 174 327 164 336 156Z" fill="url(#silver)"/>
</svg>
